<?xml version="1.0" encoding="UTF-8" standalone="no"?>
<!DOCTYPE svg PUBLIC "-//W3C//DTD SVG 1.1//EN" "http://www.w3.org/Graphics/SVG/1.1/DTD/svg11.dtd">
<svg width="100%" height="100%" viewBox="0 0 512 512" version="1.1" xmlns="http://www.w3.org/2000/svg" xmlns:xlink="http://www.w3.org/1999/xlink" xml:space="preserve" xmlns:serif="http://www.serif.com/" style="fill-rule:evenodd;clip-rule:evenodd;stroke-linejoin:round;stroke-miterlimit:2;">
    <g transform="matrix(-1,0,0,1,511.999,0)">
        <path d="M353.844,133.192L189.767,297.258L252.412,31.772L252.424,31.772L353.844,133.192Z" style="fill:rgb(253,177,71);fill-rule:nonzero;"/>
    </g>
    <g transform="matrix(-1,0,0,1,511.999,0)">
        <path d="M455.253,31.772L455.253,31.784L353.844,133.192L252.424,31.772L455.253,31.772Z" style="fill:rgb(8,120,127);fill-rule:nonzero;"/>
    </g>
    <g transform="matrix(-1,0,0,1,511.999,0)">
        <path d="M455.253,31.784L455.253,234.613L353.844,133.192L455.253,31.784Z" style="fill:rgb(253,177,71);fill-rule:nonzero;"/>
    </g>
    <g transform="matrix(-1,0,0,1,511.999,0)">
        <path d="M353.844,133.192L455.253,234.613L189.767,297.269L189.767,297.258L353.844,133.192Z" style="fill:rgb(8,120,127);fill-rule:nonzero;"/>
    </g>
    <g transform="matrix(-1,0,0,1,511.999,0)">
        <path d="M484.493,251.583L463.93,231.02L463.93,35.367L481.207,18.09C484.594,14.703 484.594,9.211 481.207,5.825C477.819,2.438 472.328,2.438 468.941,5.825L451.664,23.102L256.009,23.102L235.447,2.54C232.06,-0.847 226.568,-0.847 223.182,2.54C219.795,5.927 219.795,11.419 223.182,14.805L242.866,34.489L181.819,293.178C176.785,299.468 175.1,307.853 177.458,315.684C180.082,324.397 187.251,330.933 196.168,332.743L235.098,340.645C242.478,342.144 248.756,346.809 252.318,353.445C255.88,360.081 256.3,367.889 253.471,374.868C248.868,386.221 236.825,392.621 224.845,390.079L78.998,359.18C57.038,354.526 34.897,366.993 27.482,388.177C23.182,400.462 24.437,413.981 30.924,425.264C37.412,436.549 48.463,444.436 61.24,446.901L61.844,447.018C73.337,449.235 83.097,456.426 88.622,466.746C94.147,477.066 94.719,489.174 90.191,499.97C88.338,504.388 90.418,509.47 94.835,511.323C95.931,511.782 97.067,512 98.185,512C101.575,512 104.794,510.001 106.186,506.678C112.742,491.044 111.914,473.505 103.912,458.559C95.91,443.613 81.774,433.198 65.131,429.987L64.527,429.87C56.7,428.36 49.933,423.53 45.96,416.619C41.987,409.708 41.219,401.43 43.853,393.906C48.393,380.933 61.958,373.303 75.4,376.149L221.244,407.048C241.467,411.333 261.775,400.54 269.541,381.385C274.316,369.609 273.607,356.435 267.596,345.24C261.587,334.044 250.998,326.174 238.545,323.646L199.615,315.744C195.743,314.958 194.443,311.942 194.064,310.682C193.756,309.662 193.319,307.35 194.645,305.025L452.539,244.167L472.223,263.851C473.917,265.544 476.138,266.392 478.357,266.392C480.576,266.392 482.797,265.545 484.491,263.851C487.879,260.462 487.879,254.97 484.493,251.583ZM446.582,213.673L366.102,133.193L446.582,52.713L446.582,213.673ZM434.317,40.448L353.837,120.928L273.356,40.448L434.317,40.448ZM341.571,133.194L205.219,269.545L257.286,48.909L341.571,133.194ZM217.485,281.812L353.837,145.46L438.122,229.745L217.485,281.812Z" style="fill:rgb(90,23,80);fill-rule:nonzero;"/>
    </g>
</svg>
